<svg xmlns="http://www.w3.org/2000/svg" version="1" width="721" height="100%" viewBox="-0.288 -0.707 721 179"><path fill="#ff7313" fill-rule="evenodd" stroke="#000" stroke-width="6.76" stroke-miterlimit="2.613" d="M581.8 127.929l4.347-85.644-38.148-19.27.98-19.269h168.008l-.922 18.199-44.589 20.34L667.069 129l41.438 21.41-1.199 23.55H534.112l1.086-21.41 46.602-24.621zM399.894 130.226h-25.41l1.543-31.578 25.453-.004c13.484-.535 19.492 11.508 16.074 19.27 0 0-1.293 11.777-17.66 12.312zm3.125-61.297h-25.41l1.547-29.664h26.727c10.113-.266 17.375 7.188 15.172 16.664-.001 0-.646 13.008-18.036 13zm72.789-65.476s32.41-3.48 38.684 37.625c0 0 2.59 28.344-26.215 44.961 31.398 9.07 25.691 47.074 25.691 47.074-9.484 43.18-53.676 40.711-53.676 40.711H246.399l1.307-21.41 39.869-24.586 3.803-86.805-37.375-18.156 1.307-19.273 220.498-.141zM123.032 26.89h4.98c11.455 0 20.254 9.586 19.654 21.41l-3.932 77.5c-.602 11.824-10.373 21.41-21.83 21.41h-4.979c-11.455 0-20.254-9.586-19.656-21.41l3.936-77.5c.599-11.824 10.372-21.41 21.827-21.41zM80.911 3.589h92.049c40.098 0 70.898 33.551 68.795 74.938l-1.033 20.34c-2.102 41.391-36.307 74.938-76.4 74.938h-92.05c-40.092 0-70.893-33.547-68.791-74.938l1.029-20.34C6.614 37.14 40.819 3.589 80.911 3.589z"/><path d="M679.155 111.335c0-4.316 1.695-8.23 4.434-11.055 2.738-2.828 6.527-4.578 10.707-4.578 4.184 0 7.969 1.75 10.707 4.578 2.742 2.824 4.438 6.738 4.438 11.055 0 4.313-1.695 8.223-4.438 11.051h-.004c-2.742 2.828-6.527 4.578-10.703 4.578-4.168 0-7.957-1.75-10.699-4.578 0-.004-.004-.004-.008-.008-2.738-2.832-4.434-6.738-4.434-11.043zm15.153 1.856h-3.359v5.93h-2.809v-15.699l7.816-.004c2.234.063 3.867 1.262 4.656 2.781.34.66.527 1.379.535 2.094v.008a4.456 4.456 0 0 1-.535 2.148c-.539.988-1.492 1.828-2.891 2.313l3.992 6.637h-3.676l-3.729-6.208zm-3.36-2.899c1.668 0 3.098-.109 4.973-.109h.25l.008.012c1.063-.199 1.703-.637 1.988-1.16a1.41 1.41 0 0 0 .172-.711c0-.262-.07-.531-.191-.77-.352-.672-1.141-1.207-2.266-1.238h-4.934v3.976zm-5.281-7.871c-2.207 2.281-3.57 5.434-3.57 8.914 0 3.48 1.359 6.633 3.566 8.906l.004.004c2.203 2.277 5.258 3.684 8.629 3.684 3.375 0 6.426-1.41 8.633-3.684v-.004c2.207-2.281 3.574-5.426 3.574-8.906 0-3.48-1.367-6.633-3.574-8.91-2.211-2.281-5.262-3.691-8.633-3.691-3.367 0-6.418 1.41-8.629 3.687z"/></svg>